<?xml version="1.0" encoding="UTF-8"?>
<svg version="1.1" xmlns="http://www.w3.org/2000/svg" width="500" height="500">
<path d="M0 0 C37.1914013 -7.56187391 84.59812179 -15.29731629 118.32557487 6.41657257 C134.12992281 17.01086486 147.88510241 30.06328817 161.23561859 43.54009247 C164.03058963 46.35684893 166.87441617 49.11724369 169.73782611 51.8641848 C175.85920734 57.74222908 181.7185087 63.7965226 187.3964386 70.10399437 C189.29705792 72.21164022 191.24089579 74.24695266 193.26182556 76.23931313 C218.60293155 101.94201221 209.43333409 130.16671614 210 167 C240.36 136.64 270.72 106.28 302 75 C287.6759375 77.0109375 287.6759375 77.0109375 273.0625 79.0625 C251.33893929 80.3418006 236.11640193 76.77094165 219.4657135 62.42515564 C210.66228351 54.52181376 202.39534261 46.13296274 194.3125 37.5 C193.08914885 36.19495451 193.08914885 36.19495451 191.84108353 34.86354446 C162 2.88100151 162 2.88100151 162 0 C268.26 0 374.52 0 484 0 C477.25 7.875 477.25 7.875 474.43496895 10.68807888 C473.79252806 11.33251082 473.15008717 11.97694276 472.48817837 12.64090294 C471.45800148 13.66671056 471.45800148 13.66671056 470.40701294 14.71324158 C469.66276341 15.45834553 468.91851389 16.20344948 468.15171134 16.97113234 C465.67137865 19.45310472 463.18750252 21.93149942 460.70361328 24.40991211 C458.91928486 26.19395831 457.1351769 27.97822504 455.35127258 29.76269531 C451.51738536 33.59680984 447.68197693 37.42939224 443.84515762 41.26057243 C438.29785222 46.79973008 432.75332985 52.34166664 427.20946978 57.88427228 C418.2135432 66.87801349 409.21538852 75.86952203 400.21582031 84.85961914 C391.47668895 93.58956307 382.73861477 102.32056294 374.00195312 111.05297852 C373.46288327 111.59178565 372.92381341 112.13059279 372.3684081 112.68572741 C369.66389778 115.38893263 366.95940816 118.09215856 364.25492883 120.79539478 C341.83982652 143.20014049 319.42106588 165.60122216 297 188 C298.74987772 191.73694817 300.8850814 194.13412015 303.81826782 197.06550598 C304.31252553 197.56217811 304.80678324 198.05885023 305.31601846 198.57057303 C306.97239591 200.23258317 308.63582126 201.88735255 310.29931641 203.54223633 C311.48900893 204.7330019 312.67826833 205.92420033 313.86712646 207.11579895 C317.09840814 210.35193079 320.33591126 213.58177224 323.57468462 216.81040406 C326.96684405 220.19377599 330.35372635 223.58242294 333.74130249 226.97038269 C339.43594746 232.6640907 345.13445304 238.35391148 350.83544922 244.04125977 C357.41426664 250.60438531 363.9878772 257.17268849 370.55848563 263.74403173 C377.56362418 270.74984774 384.57257405 277.75184125 391.5826335 284.75273299 C393.59607437 286.76404891 395.60880954 288.7760687 397.62138748 290.78824806 C400.7954909 293.96134115 403.97215335 297.131851 407.15074921 300.30044365 C408.31251196 301.45930406 409.47345126 302.6189907 410.63347244 303.77959442 C416.04122099 309.18902966 421.45900029 314.52487536 427.27448082 319.50158787 C429.9496987 321.82470254 432.45380289 324.30620274 434.95703125 326.81176758 C435.76345314 327.61315155 435.76345314 327.61315155 436.58616638 328.4307251 C438.33087782 330.16607256 440.07192313 331.90503747 441.8125 333.64453125 C443.0341079 334.8629209 444.25578883 336.08123733 445.47753906 337.29948425 C448.02081296 339.83680676 450.56204879 342.3761504 453.10205078 344.91674805 C456.36326561 348.17806531 459.63135472 351.4324014 462.90116882 354.68509388 C465.41805129 357.19089653 467.93041492 359.70119159 470.4414978 362.21280479 C471.64561831 363.415743 472.85136586 364.6170548 474.05874634 365.81672096 C475.73663108 367.48486937 477.40813408 369.15915945 479.078125 370.83520508 C479.57984726 371.33130783 480.08156952 371.82741058 480.59849548 372.33854675 C484 375.77167146 484 375.77167146 484 378 C446.87025547 385.46045315 399.4633699 393.21946215 365.7446413 371.67658138 C350.0717864 361.2473913 336.44997392 348.3609725 323.22838974 335.04049301 C320.4648154 332.2615131 317.65127699 329.54077 314.81650656 326.83467919 C294.51820202 307.42897426 275.42745153 287.78942914 273.08691406 258.63134766 C273.03015235 257.92518523 272.97339065 257.2190228 272.91490889 256.49146152 C271.85512221 240.97037485 273.84817838 225.45327225 275 210 C244.31 240.69 213.62 271.38 182 303 C196.6025 301.02 196.6025 301.02 211.5 299 C233.2363565 297.76827313 248.70453158 301.06510398 265.43579102 315.39096069 C274.13412714 323.16045954 282.28355961 331.42553436 290.25 339.9375 C291.0527536 340.79353821 291.8555072 341.64957642 292.68258667 342.53155518 C300.81101222 351.23927233 308.76428504 360.0946764 316.46972656 369.17944336 C317.03629723 369.84391479 317.60286789 370.50838623 318.18660736 371.19299316 C322 375.75601577 322 375.75601577 322 378 C215.74 378 109.48 378 0 378 C6.75 370.125 6.75 370.125 9.56503105 367.31192112 C10.20747194 366.66748918 10.84991283 366.02305724 11.51182163 365.35909706 C12.19860622 364.67522531 12.88539081 363.99135356 13.59298706 363.28675842 C14.33723659 362.54165447 15.08148611 361.79655052 15.84828866 361.02886766 C18.32862135 358.54689528 20.81249748 356.06850058 23.29638672 353.59008789 C25.08071514 351.80604169 26.8648231 350.02177496 28.64872742 348.23730469 C32.48261464 344.40319016 36.31802307 340.57060776 40.15484238 336.73942757 C45.70214778 331.20026992 51.24667015 325.65833336 56.79053022 320.11572772 C65.7864568 311.12198651 74.78461148 302.13047797 83.78417969 293.14038086 C92.52331105 284.41043693 101.26138523 275.67943706 109.99804688 266.94702148 C110.53711673 266.40821435 111.07618659 265.86940721 111.6315919 265.31427259 C114.33610222 262.61106737 117.04059184 259.90784144 119.74507117 257.20460522 C142.16017348 234.79985951 164.57893412 212.39877784 187 190 C185.65778122 187.01382911 184.17789644 184.92922965 181.86469078 182.62138844 C181.2162805 181.96961276 180.56787022 181.31783708 179.89981115 180.64631063 C178.82881152 179.5850727 178.82881152 179.5850727 177.73617554 178.50239563 C176.9790095 177.74422631 176.22184346 176.98605699 175.441733 176.20491284 C172.89605568 173.6582807 170.34328917 171.11887479 167.79052734 168.5793457 C165.96715914 166.75817799 164.14423784 164.93656274 162.32173157 163.11453247 C158.39344728 159.18861037 154.46157316 155.26631354 150.52729416 151.34639931 C144.83848828 145.67826675 139.15568317 140.00414863 133.47442527 134.32845178 C124.25618611 125.1194685 115.03385457 115.91459537 105.80859375 106.71264648 C105.25646102 106.16190707 104.70432829 105.61116765 104.13546427 105.04373916 C103.58262106 104.49229149 103.02977786 103.94084382 102.46018183 103.37268561 C94.61596447 95.54825042 86.77272591 87.72283582 78.93066406 79.89624023 C78.37859533 79.34526235 77.82652659 78.79428446 77.2577285 78.22661028 C68.06671819 69.05359653 58.87771957 59.87856929 49.68975604 50.70250386 C44.01831869 45.03867276 38.34480856 39.37693203 32.66863646 33.71784594 C28.32642485 29.38852563 23.98661338 25.05680717 19.64768028 20.7242012 C17.8618485 18.94185646 16.07514498 17.16038469 14.28753471 15.37982368 C11.85937117 12.96102952 9.43423489 10.53924125 7.00985718 8.11665344 C6.29139598 7.40246933 5.57293479 6.68828521 4.83270204 5.95245916 C4.18950726 5.30850672 3.54631247 4.66455429 2.88362694 4.00108814 C2.32272499 3.44165006 1.76182305 2.88221199 1.18392408 2.30582124 C0 1 0 1 0 0 Z " fill="#003780" transform="translate(8,61)"/>
</svg>
